<?xml version="1.0" standalone="no"?>
<!DOCTYPE svg PUBLIC "-//W3C//DTD SVG 20010904//EN"
 "http://www.w3.org/TR/2001/REC-SVG-20010904/DTD/svg10.dtd">
<svg version="1.0" xmlns="http://www.w3.org/2000/svg"
 width="440.000000pt" height="600.000000pt" viewBox="0 0 440.000000 600.000000"
 preserveAspectRatio="xMidYMid meet">

<g transform="translate(0.000000,600.000000) scale(0.100000,-0.100000)"
fill="#000000" stroke="none">
<path d="M1332 5494 c9 -8 110 -34 136 -34 15 0 21 4 16 11 -3 6 0 15 7 20 9
5 -20 9 -75 9 -49 0 -87 -3 -84 -6z"/>
<path d="M1927 5409 l-77 -39 15 -30 15 -29 80 55 c44 31 80 57 80 59 0 3 -8
8 -17 14 -13 6 -38 -1 -96 -30z m89 12 c-4 -5 -34 -28 -67 -51 -48 -33 -63
-39 -70 -28 -14 21 -12 24 49 56 55 30 99 42 88 23z"/>
<path d="M2830 5435 c0 -18 21 -37 78 -71 l43 -26 -7 26 c-3 15 -1 32 6 41 9
11 6 17 -19 29 -40 21 -101 21 -101 1z"/>
<path d="M2175 5397 c59 -44 127 -111 193 -192 19 -22 31 -35 28 -29 -4 7 6
13 23 16 25 4 34 -2 63 -41 84 -113 194 -331 243 -479 16 -45 29 -81 31 -79 3
3 -17 191 -31 291 l-6 38 42 -36 c46 -39 89 -51 151 -43 48 6 84 30 116 78 20
29 23 44 20 96 -3 53 -9 68 -33 94 -27 27 -74 59 -90 59 -14 0 0 -22 45 -69
60 -63 49 -62 -89 6 l-94 47 -38 -43 c-41 -46 -43 -45 -54 24 -14 91 -22 103
-94 140 -37 18 -94 41 -127 49 -51 13 -280 89 -339 112 -11 4 7 -13 40 -39z
m663 -299 c36 -36 -11 -93 -57 -69 -39 21 -21 81 24 81 12 0 26 -5 33 -12z"/>
<path d="M2065 5146 c-37 -17 -80 -62 -94 -99 -61 -160 124 -301 270 -208 54
34 79 80 79 146 0 53 -16 88 -57 127 -51 48 -134 62 -198 34z m30 -66 c40 -45
-20 -105 -65 -65 -24 22 -25 43 -3 67 21 23 45 23 68 -2z"/>
<path d="M3479 4750 c-58 -10 -124 -43 -144 -74 -9 -13 -18 -39 -22 -58 -4
-31 0 -39 31 -70 75 -73 235 -90 323 -35 92 58 107 117 44 177 -52 50 -145 74
-232 60z"/>
<path d="M2665 4183 c6 -5 47 -33 93 -62 45 -30 82 -59 83 -65 1 -16 17 35 18
60 1 19 -10 24 -82 42 -46 12 -92 24 -103 28 -12 5 -15 4 -9 -3z"/>
<path d="M2438 3929 c-26 -14 -23 -54 5 -66 48 -22 92 22 57 57 -22 22 -37 24
-62 9z"/>
<path d="M2953 3181 c-120 -38 -123 -38 -190 -25 -37 7 -68 12 -69 11 -1 -1
-9 -16 -18 -34 -30 -60 -26 -63 74 -63 78 0 98 4 142 26 67 34 217 134 186
123 -2 0 -58 -18 -125 -38z"/>
<path d="M2626 2605 c-7 -29 10 -68 27 -62 19 6 15 81 -4 85 -11 2 -19 -6 -23
-23z"/>
<path d="M2441 2606 c-19 -23 -10 -71 14 -71 22 0 30 24 21 61 -7 27 -18 30
-35 10z"/>
<path d="M2752 2438 c-15 -56 -62 -129 -102 -158 -65 -46 -179 -39 -239 15
-33 30 -49 58 -89 155 l-11 25 0 -27 c-1 -45 59 -149 107 -182 89 -63 234 -38
295 52 41 58 78 162 58 162 -5 0 -13 -19 -19 -42z"/>
</g>
</svg>
