<?xml version="1.0" standalone="no"?>
<!DOCTYPE svg PUBLIC "-//W3C//DTD SVG 20010904//EN"
 "http://www.w3.org/TR/2001/REC-SVG-20010904/DTD/svg10.dtd">
<svg version="1.0" xmlns="http://www.w3.org/2000/svg"
 width="432.000000pt" height="600.000000pt" viewBox="0 0 432.000000 600.000000"
 preserveAspectRatio="xMidYMid meet">

<g transform="translate(0.000000,600.000000) scale(0.100000,-0.100000)"
fill="#000000" stroke="none">
<path d="M1230 5335 c40 -16 79 -19 65 -6 -6 5 -30 11 -55 14 l-45 6 35 -14z"/>
<path d="M2090 5244 c19 -15 70 -63 113 -107 43 -43 74 -69 67 -57 -10 20 -9
21 12 18 50 -7 216 -283 277 -463 l31 -90 -3 240 c-3 225 -9 283 -36 323 -4 7
-55 24 -113 37 -87 20 -324 97 -371 120 -6 3 4 -6 23 -21z"/>
<path d="M1945 4987 c-66 -37 -103 -106 -91 -171 20 -108 154 -177 263 -135
64 24 113 93 113 159 0 61 -27 108 -79 141 -59 38 -145 40 -206 6z m53 -49 c7
-7 12 -21 12 -33 0 -28 -19 -45 -50 -45 -31 0 -50 17 -50 45 0 28 19 45 50 45
14 0 31 -5 38 -12z"/>
<path d="M2671 4967 c-49 -60 -48 -146 2 -204 56 -64 142 -81 223 -44 96 43
126 154 65 238 -15 21 -22 22 -147 23 -97 0 -134 -3 -143 -13z m93 -10 c21
-16 18 -55 -5 -70 -21 -13 -65 -1 -73 19 -8 22 20 64 42 64 10 0 26 -6 36 -13z"/>
<path d="M3379 4596 c-57 -20 -97 -53 -109 -92 -10 -29 -9 -39 6 -62 43 -66
125 -97 238 -90 204 14 273 167 106 235 -64 26 -182 30 -241 9z m54 -55 c59
-23 28 -81 -44 -81 -71 0 -105 34 -69 70 22 22 72 26 113 11z"/>
<path d="M2576 4023 c34 -79 39 -81 39 -18 0 51 -2 55 -29 65 -16 5 -31 10
-32 10 -2 0 8 -26 22 -57z"/>
<path d="M2549 2509 c-8 -16 -8 -28 0 -46 19 -42 59 -8 47 40 -8 32 -31 35
-47 6z"/>
<path d="M2352 2508 c-21 -21 -11 -78 14 -78 23 0 38 39 25 66 -12 27 -21 30
-39 12z"/>
<path d="M2676 2337 c-39 -135 -156 -209 -277 -177 -59 16 -131 90 -154 159
-9 28 -20 49 -25 46 -14 -8 19 -92 54 -138 95 -126 301 -115 382 21 34 56 57
129 44 137 -5 3 -15 -19 -24 -48z"/>
</g>
</svg>
