<?xml version="1.0" standalone="no"?>
<!DOCTYPE svg PUBLIC "-//W3C//DTD SVG 20010904//EN"
 "http://www.w3.org/TR/2001/REC-SVG-20010904/DTD/svg10.dtd">
<svg version="1.0" xmlns="http://www.w3.org/2000/svg"
 width="455.000000pt" height="600.000000pt" viewBox="0 0 455.000000 600.000000"
 preserveAspectRatio="xMidYMid meet">

<g transform="translate(0.000000,600.000000) scale(0.100000,-0.100000)"
fill="#000000" stroke="none">
<path d="M2838 5411 c4 -313 4 -323 -14 -317 -143 43 -338 66 -558 66 -222 0
-342 -14 -534 -61 -68 -17 -125 -29 -126 -27 -2 2 -9 19 -16 38 -51 134 -208
403 -298 510 l-30 35 -7 -90 c-5 -50 -4 -207 1 -350 5 -143 8 -375 6 -515 -3
-215 -6 -258 -19 -272 -48 -53 -255 -150 -283 -133 -5 3 -10 2 -10 -4 0 -15
92 -79 151 -105 l53 -23 -92 -18 c-50 -9 -109 -15 -131 -13 -23 2 -41 0 -41
-3 0 -18 148 -140 258 -212 67 -44 122 -85 122 -90 0 -5 -41 -7 -95 -5 -52 1
-95 2 -95 1 0 -6 341 -229 418 -272 95 -54 143 -89 275 -200 71 -59 77 -67 87
-117 7 -30 9 -72 5 -93 -6 -35 -4 -39 33 -63 121 -81 295 -146 412 -155 95 -7
153 8 197 52 27 27 33 41 33 75 0 22 5 61 11 86 11 43 15 47 84 79 91 44 147
82 315 215 177 141 337 253 430 300 41 22 88 48 105 59 30 21 145 150 145 164
0 4 -31 7 -70 7 -38 0 -70 3 -70 8 0 4 24 23 52 42 93 63 288 262 288 293 0 4
-60 7 -134 7 -170 0 -179 3 -121 42 47 31 51 48 11 48 -28 0 -157 63 -178 87
-9 10 -32 79 -51 153 -108 410 -313 853 -489 1054 l-34 39 4 -322z m137 -625
c98 -45 148 -135 149 -262 0 -73 -3 -86 -35 -145 -79 -145 -229 -178 -344 -77
-69 61 -97 127 -97 228 2 155 108 278 242 279 19 1 58 -10 85 -23z m-938 -77
c82 -40 143 -149 143 -259 0 -110 -61 -219 -143 -259 -115 -56 -246 -1 -309
128 -31 64 -32 196 -2 261 25 54 83 115 127 134 49 22 134 19 184 -5z"/>
<path d="M2783 4634 c-20 -10 -40 -32 -53 -58 -50 -105 4 -226 102 -226 51 0
91 29 112 80 31 79 11 155 -53 197 -40 27 -64 28 -108 7z m17 -69 c19 -23 8
-50 -20 -50 -19 0 -26 6 -28 24 -5 35 26 53 48 26z"/>
<path d="M1866 4569 c-37 -29 -56 -71 -56 -124 0 -89 48 -148 120 -148 49 0
85 25 110 77 34 72 20 151 -35 194 -37 29 -103 30 -139 1z m34 -79 c0 -15 -7
-30 -15 -34 -14 -5 -45 18 -45 34 0 16 31 39 45 34 8 -4 15 -19 15 -34z"/>
<path d="M1893 5285 c-50 -25 -92 -70 -78 -83 4 -4 11 1 16 10 13 23 73 59
115 68 32 7 76 2 117 -15 10 -4 17 -3 17 4 0 16 -62 41 -103 41 -18 0 -56 -11
-84 -25z"/>
<path d="M2537 5256 c-39 -14 -81 -45 -73 -54 3 -2 26 6 53 19 61 29 126 30
182 1 48 -25 51 -26 51 -12 0 17 -101 60 -140 59 -19 0 -52 -6 -73 -13z"/>
<path d="M3948 3711 c-25 -16 -51 -38 -58 -48 -7 -12 -13 -14 -16 -6 -13 29
-47 63 -65 63 -12 0 -20 -9 -24 -27 -3 -16 -12 -57 -21 -93 -9 -36 -22 -92
-28 -125 -7 -33 -18 -71 -26 -85 -26 -49 -138 -190 -258 -327 -70 -79 -83 -85
-286 -137 -55 -14 -100 -27 -102 -28 -1 -2 -14 -88 -28 -193 -15 -104 -29
-202 -32 -217 l-5 -27 58 15 c232 56 342 94 410 140 69 47 302 287 387 399 38
50 100 122 137 160 37 39 88 102 113 140 59 89 59 118 6 236 -22 49 -40 104
-40 123 0 25 -6 38 -25 50 -33 22 -44 20 -97 -13z"/>
<path d="M2489 2553 c-11 -28 -4 -79 12 -89 28 -17 51 53 33 100 -9 25 -33 19
-45 -11z"/>
<path d="M2296 2544 c-11 -28 -6 -70 9 -90 15 -19 15 -19 30 0 16 21 19 47 9
84 -7 25 -39 30 -48 6z"/>
<path d="M719 2411 c-23 -18 -24 -25 -23 -128 1 -92 7 -126 38 -231 47 -161
107 -320 150 -396 102 -181 284 -320 472 -362 l78 -17 23 29 c28 35 28 40 4
47 -17 4 -17 9 10 112 l28 107 -22 -5 c-83 -20 -96 -19 -159 10 -107 50 -253
203 -312 327 -14 28 -48 128 -76 221 -29 94 -61 192 -72 218 -35 81 -90 108
-139 68z"/>
<path d="M2612 2346 c-39 -195 -200 -292 -319 -192 -31 26 -76 115 -93 184
-14 53 -35 57 -27 5 8 -63 45 -147 82 -191 88 -102 239 -89 320 29 47 69 85
207 59 216 -6 2 -16 -19 -22 -51z"/>
<path d="M1190 2264 c-23 -59 -47 -130 -53 -159 -10 -48 -8 -56 20 -116 34
-72 194 -289 253 -343 39 -35 119 -66 171 -66 34 0 60 32 118 145 23 44 57
107 76 140 19 33 35 68 35 77 0 23 -36 46 -87 54 l-41 6 18 30 c22 37 18 52
-21 68 -38 16 -70 -4 -100 -61 l-21 -42 -43 49 c-49 54 -51 63 -31 102 34 68
37 63 -103 146 -72 42 -134 76 -140 76 -5 0 -28 -48 -51 -106z"/>
<path d="M3424 1045 c-139 -99 -136 -97 -187 -92 -30 2 -66 16 -98 36 -28 17
-52 31 -53 31 -5 0 -106 -176 -106 -184 0 -11 259 -136 283 -136 58 0 180 111
223 203 25 55 31 125 14 158 -14 26 -20 25 -76 -16z"/>
<path d="M1298 868 c-27 -42 -96 -192 -117 -255 -25 -75 -26 -123 -4 -171 22
-49 207 -232 233 -232 34 0 70 44 70 85 0 38 -15 71 -74 169 -56 93 -49 159
27 258 l36 46 -70 61 c-39 34 -74 61 -79 61 -4 0 -14 -10 -22 -22z"/>
</g>
</svg>
