<?xml version="1.0" standalone="no"?>
<!DOCTYPE svg PUBLIC "-//W3C//DTD SVG 20010904//EN"
 "http://www.w3.org/TR/2001/REC-SVG-20010904/DTD/svg10.dtd">
<svg version="1.0" xmlns="http://www.w3.org/2000/svg"
 width="419.000000pt" height="600.000000pt" viewBox="0 0 419.000000 600.000000"
 preserveAspectRatio="xMidYMid meet">

<g transform="translate(0.000000,600.000000) scale(0.100000,-0.100000)"
fill="#000000" stroke="none">
<path d="M1686 5710 c39 -47 105 -137 147 -200 73 -111 177 -305 177 -330 0
-6 -18 4 -40 22 -35 30 -226 138 -244 138 -4 0 45 -50 109 -112 64 -62 137
-140 162 -175 25 -35 51 -63 58 -63 17 0 257 48 260 52 0 2 17 35 37 73 19 39
78 135 130 215 52 80 105 165 118 190 l22 45 -28 -26 c-16 -14 -87 -71 -159
-126 -71 -55 -141 -112 -154 -127 -30 -32 -41 -33 -41 -3 0 39 -56 140 -109
197 l-52 55 25 -50 c24 -50 59 -155 51 -155 -2 0 -20 25 -40 55 -82 123 -231
248 -460 386 -39 23 -38 21 31 -61z"/>
<path d="M2710 5263 c0 -25 -72 -400 -80 -418 -5 -11 -12 -40 -16 -65 -3 -25
-8 -48 -10 -51 -6 -10 -146 20 -173 38 -52 32 -111 85 -111 98 0 7 7 15 15 19
20 7 19 45 -2 53 -23 9 -267 -13 -292 -27 -17 -9 -19 -15 -11 -30 12 -23 4
-44 -32 -77 -17 -16 -54 -29 -123 -43 -55 -11 -124 -27 -154 -36 -29 -8 -54
-14 -55 -12 -2 2 -30 56 -64 121 -34 65 -81 148 -105 185 -56 85 -167 225
-174 218 -11 -11 -32 -317 -33 -469 l0 -157 -50 -88 c-100 -177 -123 -258
-134 -477 l-5 -90 -43 -8 c-47 -8 -136 6 -180 29 -15 8 -29 14 -32 14 -10 0
76 -135 108 -169 30 -32 30 -33 6 -26 -14 4 -62 25 -108 46 -45 21 -79 33 -76
26 30 -50 289 -324 341 -360 18 -12 33 -25 33 -29 0 -14 -79 -9 -116 7 -47 19
-39 10 58 -73 149 -125 198 -149 397 -193 96 -21 176 -40 178 -43 3 -2 -63
-30 -146 -63 -83 -32 -151 -61 -151 -64 0 -12 179 -61 280 -76 86 -13 123 -14
205 -5 99 11 195 37 195 52 0 4 35 -4 78 -17 100 -33 278 -39 329 -11 40 23
76 73 76 108 0 25 7 30 91 60 149 55 257 100 321 134 33 18 80 38 104 45 44
13 44 12 69 -18 13 -18 41 -40 62 -51 47 -24 62 -43 27 -35 -29 8 -81 -16 -91
-40 -12 -31 -6 -73 13 -96 19 -24 19 -24 -11 -57 -24 -28 -29 -41 -26 -75 3
-38 7 -44 41 -61 50 -24 79 -71 71 -111 -8 -40 -55 -145 -64 -145 -10 0 -100
99 -100 110 0 5 -5 21 -10 35 l-10 27 -19 -24 c-49 -62 -66 -233 -35 -365 26
-113 64 -214 64 -172 0 27 17 44 32 32 25 -21 123 -53 178 -59 44 -4 61 -1 87
15 77 48 125 227 127 466 1 99 -3 162 -12 186 -7 20 -14 90 -16 155 -5 170
-47 275 -130 319 -20 11 -36 22 -36 26 0 4 15 12 33 19 17 7 47 24 65 37 34
25 116 123 109 130 -2 2 -25 -6 -51 -17 -26 -11 -50 -20 -53 -20 -3 0 15 18
40 41 31 26 59 65 81 112 45 92 97 237 86 237 -5 0 -39 -29 -76 -65 -37 -36
-68 -65 -69 -65 -1 0 13 30 31 68 18 37 35 91 38 122 l6 55 -36 -43 c-30 -35
-97 -82 -119 -82 -3 0 -5 40 -5 88 0 189 -79 377 -238 569 -40 47 -55 79 -86
173 -53 162 -103 259 -195 381 -79 105 -111 140 -111 122z m171 -864 c60 -30
97 -67 124 -125 112 -236 -139 -481 -366 -358 -54 30 -100 81 -124 138 -18 43
-19 160 -1 201 l13 30 7 -34 c10 -43 74 -106 116 -114 85 -17 169 46 178 132
6 64 -2 92 -35 131 l-26 31 39 -7 c21 -4 55 -15 75 -25z m-243 -31 c17 -17 15
-43 -4 -59 -31 -26 -70 25 -44 56 15 18 32 19 48 3z m-941 -168 c1 -90 79
-159 167 -147 75 10 136 79 136 153 0 41 2 44 28 44 50 0 56 -12 57 -97 0 -61
-5 -87 -22 -119 -34 -63 -66 -97 -124 -128 -42 -24 -64 -29 -118 -29 -105 0
-183 47 -239 142 -23 39 -27 57 -27 121 0 107 2 110 78 110 l63 0 1 -50z m111
38 c-7 -20 -58 -23 -58 -4 0 11 10 16 31 16 20 0 29 -4 27 -12z"/>
<path d="M1163 2892 c-170 -102 -283 -239 -283 -343 0 -111 54 -196 238 -376
129 -126 134 -132 100 -127 -31 5 -38 3 -53 -20 -16 -25 -16 -28 3 -66 19 -38
19 -40 1 -56 -23 -21 -24 -57 -3 -78 18 -18 42 -20 78 -7 24 10 24 9 19 -25
-4 -25 -1 -40 12 -54 30 -33 63 -25 109 25 l42 45 16 185 17 186 -26 72 c-39
109 -80 186 -134 248 -27 30 -49 58 -49 62 0 3 16 9 35 13 19 3 35 9 35 13 0
3 -16 71 -35 151 -19 80 -37 155 -40 168 -3 12 -9 22 -13 22 -4 0 -35 -17 -69
-38z"/>
<path d="M2462 2668 c-15 -15 -16 -74 0 -84 13 -8 38 22 38 46 0 9 -6 24 -13
33 -10 14 -15 15 -25 5z"/>
<path d="M2260 2641 c-14 -28 -2 -73 19 -69 11 2 16 14 16 42 0 44 -18 58 -35
27z"/>
<path d="M1541 2600 c-29 -4 -36 -10 -43 -39 -5 -18 -8 -46 -6 -61 3 -26 6
-24 47 36 24 36 42 66 40 67 -2 2 -19 0 -38 -3z"/>
<path d="M2575 2483 c-25 -140 -146 -233 -261 -201 -70 19 -130 87 -154 174
-14 47 -35 62 -24 17 14 -59 57 -134 96 -168 47 -40 88 -50 161 -41 75 8 125
47 164 126 34 70 51 130 35 130 -5 0 -13 -17 -17 -37z"/>
<path d="M480 1903 c-111 -41 -29 -196 208 -394 133 -111 204 -155 293 -184
165 -52 322 -53 465 -4 l61 22 7 60 c3 33 6 95 6 138 0 76 -1 79 -24 79 -13 0
-40 -16 -62 -36 -52 -47 -85 -64 -144 -71 -100 -12 -300 39 -398 101 -24 15
-75 57 -115 94 -133 124 -182 165 -222 183 -42 20 -51 21 -75 12z"/>
<path d="M2595 1609 c-50 -12 -284 -55 -347 -63 l-47 -7 -25 -77 c-14 -42 -26
-82 -26 -88 0 -13 82 0 242 37 108 25 248 91 248 116 0 10 3 35 6 56 4 20 3
37 -2 36 -5 -1 -27 -5 -49 -10z"/>
<path d="M2204 789 c14 -154 28 -229 48 -255 26 -32 125 -82 192 -95 63 -13
122 0 163 36 38 32 27 47 -77 105 -46 26 -92 58 -103 72 -22 29 -36 87 -37
145 l0 41 -77 7 c-43 4 -87 9 -97 12 -18 5 -18 1 -12 -68z"/>
<path d="M1590 773 c0 -71 27 -247 44 -286 28 -67 86 -90 257 -103 90 -6 98
-5 118 15 13 13 21 34 21 55 0 45 -38 77 -127 107 -37 12 -78 29 -90 36 -32
21 -46 75 -41 154 l5 69 -93 0 -94 0 0 -47z"/>
</g>
</svg>
